<mxfile host="app.diagrams.net" modified="2024-01-10T08:29:21.620Z" agent="Mozilla/5.0 (Macintosh; Intel Mac OS X 10_15_7) AppleWebKit/537.36 (KHTML, like Gecko) Chrome/120.0.0.0 Safari/537.36" version="22.1.18" etag="kjil1jrh-Mqc8W5A2pLl" type="github">
  <diagram name="Page-1" id="_dueT4l7sRjnwMpAUAId">
    <mxGraphModel>
      <root>
        <mxCell id="0" />
        <mxCell id="1" parent="0" />
      </root>
    </mxGraphModel>
  </diagram>
</mxfile>
